<?xml version="1.0" encoding="utf-8"?>
<!-- Generator: Adobe Illustrator 18.1.1, SVG Export Plug-In . SVG Version: 6.00 Build 0)  -->
<svg version="1.1" xmlns="http://www.w3.org/2000/svg" xmlns:xlink="http://www.w3.org/1999/xlink" x="0px" y="0px"
	 viewBox="0 0 50 50" enable-background="new 0 0 50 50" xml:space="preserve">
<g id="Layer_1">
</g>
<g id="Election_Event_On_A_Calendar_With_Star_Symbol">
	<g>
		<path fill="#D1912A" d="M20.5,29.4L19.9,33c-0.1,0.5,0.1,1,0.5,1.3c0.4,0.3,0.9,0.3,1.4,0.1l3.2-1.7l3.2,1.7
			c0.2,0.1,0.4,0.1,0.6,0.1c0.3,0,0.5-0.1,0.8-0.2c0.4-0.3,0.6-0.8,0.5-1.3l-0.6-3.6l2.6-2.5c0.4-0.3,0.5-0.9,0.3-1.3
			c-0.2-0.5-0.6-0.8-1-0.9l-3.6-0.5l-1.6-3.2c-0.2-0.4-0.7-0.7-1.2-0.7c-0.5,0-0.9,0.3-1.2,0.7l-1.6,3.2l-3.6,0.5
			c-0.5,0.1-0.9,0.4-1,0.9c-0.2,0.5,0,1,0.3,1.3L20.5,29.4z"/>
		<path fill="#D1912A" d="M40.3,8.5h-4.1V6.2c0-1-0.8-1.9-1.9-1.9h-0.3c-1,0-1.9,0.8-1.9,1.9v2.3H17.8V6.2c0-1-0.8-1.9-1.9-1.9h-0.3
			c-1,0-1.9,0.8-1.9,1.9v2.3h-4c-2.1,0-3.9,1.7-3.9,3.9v27.1c0,2.1,1.7,3.9,3.9,3.9h30.6c2.1,0,3.9-1.7,3.9-3.9V12.4
			C44.2,10.2,42.4,8.5,40.3,8.5z M39.8,38.9H10.2V17.9h29.6V38.9z"/>
	</g>
</g>
</svg>
