<?xml version="1.0" encoding="utf-8"?>
<!-- Generator: Adobe Illustrator 18.1.1, SVG Export Plug-In . SVG Version: 6.00 Build 0)  -->
<svg version="1.1" id="emory_university" xmlns="http://www.w3.org/2000/svg" xmlns:xlink="http://www.w3.org/1999/xlink" x="0px"
	 y="0px" viewBox="0 0 360 99.4" enable-background="new 0 0 360 99.4" xml:space="preserve">
<g>
	<g>
		<g>
			<g>
				<g>
					<g>
						<path fill="#FFFFFF" d="M138.6,80.2c0,4.4,2.8,6.4,6.5,6.4c5.1,0,6.3-3.4,6.3-6.6v-8.9c0-2.8-2.5-1.6-2.5-2.7
							c0-0.1,0.2-0.3,0.3-0.3c1.1,0,2.1,0.1,3.2,0.1c0.5,0,1-0.1,1.5-0.1c0.1,0,0.4,0.1,0.4,0.3c0,0.7-1.6,0.2-1.6,2.7v8.5
							c0,1.3,0.3,8.1-7.6,8.1c-7.2,0-8.6-4-8.6-8.2v-9.2c0-1.6-2.2-1-2.2-1.8c0-0.2,0.5-0.3,0.6-0.3c0.7,0,1.4,0.1,2.1,0.1
							c0.9,0,1.8-0.1,2.6-0.1c0.1,0,0.9-0.1,0.9,0.3c0,0.7-1.8,0-1.8,2V80.2z"/>
						<path fill="#FFFFFF" d="M164.6,73.6c0-5.7-3.3-4.1-3.3-5.1c0-0.2,0.3-0.3,0.4-0.3c0.4,0,0.9,0.1,1.3,0.1
							c0.4,0,0.9-0.1,1.3-0.1c0.3,0,0.5,0.4,0.7,0.6L178,83.4c0.2,0.2,0.3,0.3,0.3,0.3c0.1,0,0.1-0.1,0.1-0.3V71.9
							c0-3.6-3-2.6-3-3.5c0-0.2,0.1-0.3,0.3-0.3c0.8,0,1.6,0.1,2.5,0.1c0.9,0,2.1-0.1,2.8-0.1c0.2,0,0.3,0.1,0.3,0.2
							c0,0.7-1.6,0.2-1.6,2.2v15.9c0,0.8,0,1.2-0.2,1.2c-0.2,0-0.5-0.1-1-0.8l-11.8-13.3c-0.1-0.1-0.4-0.5-0.6-0.5
							c-0.1,0-0.2,0.1-0.2,0.6V85c0,2.5,2.4,1.5,2.4,2.2c0,0.1,0,0.4-0.3,0.4c-0.7,0-1.4-0.1-2.8-0.1c-1,0-2.4,0.1-2.6,0.1
							c-0.3,0-0.4-0.2-0.4-0.3c0-1,2.4,0.2,2.4-3.6V73.6z"/>
						<path fill="#FFFFFF" d="M192.4,70.5c0-2-2.2-1.5-2.2-2c0-0.2,0.1-0.3,0.3-0.3c1,0,2,0.1,3,0.1c0.8,0,1.7-0.1,2.5-0.1
							c0.4,0,0.5,0.1,0.5,0.3c0,0.7-2,0-2,2.1v14.7c0,1.9,2.4,1.2,2.4,2.1c0,0.2-0.1,0.3-0.5,0.3c-0.6,0-1.8-0.1-3-0.1
							c-1.7,0-2.2,0.1-2.6,0.1c-0.5,0-0.6-0.1-0.6-0.4c0-0.8,2.1,0.1,2.1-2.6V70.5z"/>
						<path fill="#FFFFFF" d="M205.5,70.3c-0.7-1.6-2.1-1.1-2.1-1.7c0-0.2,0.1-0.4,0.4-0.4c0.8,0,1.7,0.1,2.5,0.1
							c0.7,0,1.8-0.1,2.2-0.1c0.2,0,0.4,0.1,0.4,0.3c0,0.4-1.1,0.4-1.1,1.4c0,0.4,0.1,0.8,0.2,1.1l4.8,11.3c0.6,1.5,0.8,2.1,1.1,2.1
							c0.3,0,0.4-0.4,0.5-0.8l4.8-11.8c0.2-0.4,0.5-1.3,0.4-1.9c0-1.3-1.8-0.7-1.8-1.4c0-0.3,0.1-0.4,0.4-0.4c0.6,0,1.2,0.1,1.8,0.1
							c1.3,0,1.7-0.1,2.1-0.1c0.3,0,0.5,0.1,0.5,0.4c0,0.6-0.8-0.1-1.5,1.8l-6.8,16.1c-0.3,0.7-0.5,1.6-0.9,1.6
							c-0.4,0-0.8-1.1-1-1.7L205.5,70.3z"/>
						<path fill="#FFFFFF" d="M255.1,70.1c0-1.1,0.6-1,1.6-1c2.7,0,5.3,1.1,5.3,4.5c0,3.4-2.6,3.9-3.8,3.9c-1.3,0-3,0.1-3-0.4V70.1z
							 M260.5,77.6c1.9-0.8,3.5-2.6,3.5-4.7c0-5.3-6.1-4.7-6.5-4.7c-1.4,0-3,0.1-4.6,0.1c-1.4,0-1.3-0.1-1.8-0.1
							c-0.3,0-0.5,0.2-0.5,0.3c0,0.9,2.4-0.2,2.4,2.4v13.9c0,2.1-2,1.7-2,2.4c0,0.2,0.1,0.3,0.3,0.3c1,0,2.1-0.1,3.1-0.1
							c2.3,0,2.9,0.1,3.2,0.1c0.2,0,0.5,0.1,0.5-0.2c0-0.9-2.9-0.1-2.9-2.4v-5.8c0-0.3-0.2-0.8,0.7-0.8c3.1,0,2.7-0.1,3.6,1.5l3,4.8
							c1,1.6,2.1,3,4.1,3c0.2,0,1.8,0,1.8-0.3c0-0.7-1.3,0.4-3.3-2.7L260.5,77.6z"/>
						<path fill="#FFFFFF" d="M273.7,82.7c-0.1-0.5,0-0.9,0.3-0.9c0.4,0,0.4,0.3,0.5,0.9c0.3,1.3,2,4.1,5.8,4.1
							c2.6,0,5.2-1.5,5.2-4.3c0-5.3-11.2-2.3-11.2-9.5c0-3.5,2.9-5.2,6.1-5.2c3.3,0,4.2,1,4.6,1c0.2,0,0.3-0.3,0.6-0.3
							c0.2,0,0.3,0.1,0.3,0.4l0.4,3.7c0,0.2,0,0.4-0.3,0.4c-0.3,0-0.5-0.6-0.6-0.8c-0.8-2.4-2.8-3.6-5.3-3.6c-2.2,0-4.5,1-4.5,3.6
							c0,5.1,11.2,2.1,11.2,9.7c0,2.3-1.6,5.8-7.9,5.8c-2,0-4.5-1-4.6-1.5L273.7,82.7z"/>
						<path fill="#FFFFFF" d="M297.3,70.5c0-2-2.2-1.5-2.2-2c0-0.2,0.1-0.3,0.3-0.3c1,0,2,0.1,3,0.1c0.8,0,1.7-0.1,2.5-0.1
							c0.4,0,0.5,0.1,0.5,0.3c0,0.7-2,0-2,2.1v14.7c0,1.9,2.4,1.2,2.4,2.1c0,0.2-0.1,0.3-0.5,0.3c-0.6,0-1.8-0.1-3-0.1
							c-1.7,0-2.2,0.1-2.6,0.1c-0.5,0-0.6-0.1-0.6-0.4c0-0.8,2.1,0.1,2.1-2.6V70.5z"/>
						<path fill="#FFFFFF" d="M316.2,70.9c0-0.2,0.1-1.2-0.3-1.3h-4.5c-1.7,0-1.8,0.4-2.3,1.9c-0.1,0.3-0.1,0.6-0.5,0.6
							c-0.2,0-0.3-0.2-0.3-0.3l0.3-2.7c0-0.3,0-1.1,0.5-1.1c2.1,0,4.3,0.1,7.8,0.1c5,0,7.5-0.1,8-0.1c0.6,0,0.8,0.2,0.8,0.8l0.1,2.2
							c0,0.3,0.1,0.6-0.3,0.6c-1,0,0.5-2.1-2.3-2.1h-3.9c-1.2,0-1.1-0.1-1.1,1.3v14c0,2.3,2.2,1.4,2.2,2.2c0,0.1,0,0.3-0.2,0.3
							c-0.7,0-1.4-0.1-2.2-0.1c-3.1,0-3.6,0.1-3.8,0.1c-0.2,0-0.3-0.1-0.3-0.4c0-0.7,2.2-0.4,2.2-2V70.9z"/>
						<path fill="#FFFFFF" d="M333.2,69.9c-0.7-1.2-2.1-0.8-2.1-1.3c0-0.2,0.2-0.4,0.4-0.4c0.7,0,1.3,0.1,3.1,0.1
							c0.9,0,1.6-0.1,1.9-0.1c0.2,0,0.5,0,0.5,0.3c0,0.5-1.3,0.5-1.3,1.3c0,0.4,0.3,0.9,0.5,1.1l3.3,5.3c0.2,0.3,0.4,0.5,0.5,0.5
							c0.1,0,0.3-0.2,0.5-0.5l2.8-4.6c0.2-0.3,0.6-0.8,0.6-1.5c0-1.3-2.1-0.8-2.1-1.4c0-0.4,0.3-0.4,0.6-0.4c0.7,0,1.3,0.1,2,0.1
							c0.8,0,1.6-0.1,2.4-0.1c0.2,0,0.3,0.2,0.3,0.3c0,0.3-0.5,0.4-0.7,0.5c-0.7,0.4-1.1,1.2-1.5,1.9l-3.8,6
							c-0.4,0.7-0.7,0.8-0.7,1.2v6.7c0,2.4,2.2,1.6,2.2,2.5c0,0.2-0.2,0.3-0.6,0.3c-0.4,0-2-0.1-3-0.1c-1.2,0-2.2,0.1-2.5,0.1
							c-0.3,0-0.4,0-0.4-0.3c0-0.8,2.1-0.1,2.1-2v-6.6c0-0.5-0.4-1.1-0.6-1.4L333.2,69.9z"/>
						<path fill="#FFFFFF" d="M233.2,76c0,0.9-0.1,0.9,1,0.9h3c2.8,0,2.1-2.2,2.8-2.2c0.2,0,0.3,0.3,0.3,0.5c0,1-0.1,1.9-0.1,2.8
							c0,0.7,0.1,1.4,0.1,2.2c0,0.2-0.1,0.4-0.3,0.4c-0.8,0,0.1-2.4-2.2-2.4h-4c-0.6,0-0.5,0.5-0.5,0.9v5c0,1.6-0.2,2.3,2.1,2.3
							c6.3,0,7.2-2.8,7.6-2.8c0.2,0,0.2,0.3,0.2,0.3c0,1-0.7,1.9-1.4,2.6c-0.9,1-1.5,0.9-2.7,0.9c-2.1,0-4.2-0.2-6.2-0.1
							c-1.1,0-2.2,0.1-3.3,0.1c-0.2,0-0.4-0.1-0.4-0.3c0.1-0.3,0.3-0.3,1.2-0.7c0.7-0.3,0.8-1.1,0.8-2.4V71.6c0-1.2,0-2.6-1.5-2.8
							c-0.2-0.1-0.8-0.1-0.8-0.4c0-0.2,0.2-0.3,1-0.3c5.2,0,6.6,0.1,7.7,0.1c0.5,0,3.1-0.1,3.9-0.1c0.2,0,0.3,0.3,0.3,0.6
							c0,3-0.4,3.3-0.6,3.3c-0.7,0-0.2-1.3-0.7-1.9c-0.7-0.9-3.5-0.8-4.6-0.8c-2.6,0-2.6-0.1-2.6,1.7V76z"/>
					</g>
				</g>
			</g>
		</g>
		<g>
			<path fill="#FFFFFF" d="M248.8,10.2c12.9,0,21,11.7,21,23.7c0,12.2-7.7,19.9-17.4,19.9c-13.1,0-21.1-11.8-21.1-24
				C231.4,19.4,237.7,10.2,248.8,10.2z M249.7,55.8c14.7,0,25-9.6,25-24.5c0-13.7-10.4-23.4-23.8-23.4c-13.6,0-24.2,10-24.2,23.7
				C226.6,45.7,235.3,55.8,249.7,55.8z"/>
			<path fill="#FFFFFF" d="M288,13.2c0-2.5,1.3-2.4,3.7-2.4c6.3,0,12.3,2.6,12.3,10.5c0,7.9-6.2,9.1-8.9,9.1c-3,0-7,0.3-7-0.9V13.2z
				 M300.6,30.8c4.5-1.8,8.1-6.1,8.1-11.1c0-12.4-14.2-11.1-15.2-11.1c-3.4,0-7,0.3-10.7,0.3c-3.3,0-3-0.3-4.1-0.3
				c-0.8,0-1.3,0.4-1.3,0.8c0,2.2,5.5-0.5,5.5,5.7v32.6c0,4.9-4.7,4-4.7,5.6c0,0.4,0.3,0.7,0.6,0.7c2.4,0,4.9-0.3,7.3-0.3
				c5.3,0,6.8,0.3,7.4,0.3c0.5,0,1.1,0.1,1.1-0.5c0-2.2-6.7-0.2-6.7-5.7V34.3c0-0.6-0.4-1.8,1.7-1.8c7.2,0,6.2-0.2,8.6,3.4l7.1,11.2
				c2.4,3.7,4.9,6.9,9.6,6.9c0.6,0,5.7,0,5.7-0.8c0-1.5-4.6,0.8-9.3-6.2L300.6,30.8z"/>
			<path fill="#FFFFFF" d="M319.3,12.7c-1.7-2.8-4.8-2-4.8-3.1c0-0.5,0.4-1,0.8-1c1.7,0,2.9,0.3,7.3,0.3c2.1,0,3.8-0.3,4.5-0.3
				c0.4,0,1.2,0.1,1.2,0.6c0,1.1-3,1.1-3,3c0,1,0.8,2,1.2,2.6l7.7,12.4c0.5,0.8,0.9,1.2,1.3,1.2c0.3,0,0.7-0.5,1.2-1.3l6.6-10.7
				c0.4-0.7,1.3-1.8,1.3-3.5c0-3.1-4.8-1.8-4.8-3.3c0-0.8,0.6-1,1.3-1c1.5,0,3.1,0.3,4.7,0.3c1.9,0,3.7-0.3,5.6-0.3
				c0.4,0,0.7,0.5,0.7,0.8c0,0.7-1.1,1-1.5,1.2c-1.7,1-2.6,2.8-3.6,4.4l-9,14c-1,1.6-1.5,1.9-1.5,2.9v15.7c0,5.6,5.3,3.8,5.3,5.8
				c0,0.6-0.6,0.6-1.5,0.6c-1,0-4.7-0.3-7-0.3c-2.9,0-5.2,0.3-5.8,0.3c-0.6,0-1-0.1-1-0.8c0-1.8,4.9-0.1,4.9-4.7V33.1
				c0-1.2-1-2.5-1.5-3.3L319.3,12.7z"/>
			<path fill="#FFFFFF" d="M219.3,48.2c0.3,5.4,5.1,3,5.1,5.3c0,0.6-0.8,0.6-1.5,0.6c-1.2,0-3.5-0.3-6-0.3c-2,0-4,0.3-5.5,0.3
				c-0.6,0-0.7-0.3-0.7-0.6c0-1.9,4-0.5,4-5.3l-1.7-24.9c0-1.6-0.3-2.5-0.7-2.5c-0.5,0-1,0.6-1.7,1.9l-13.3,27
				c-0.3,0.6-1.3,3.2-2,3.2c-0.6,0-1.1-1.4-1.3-1.9l-13.7-28.6c-0.2-0.5-0.5-0.7-0.8-0.7c-0.2,0-0.4,0.3-0.4,1l-1.9,22.5
				c-0.3,8.5,5.8,5.7,5.8,8c0,0.6-0.7,0.7-1.6,0.7c-0.8,0-3.7-0.3-5.6-0.3c-3.3,0-4.4,0.3-5.7,0.3c-0.5,0-0.6-0.3-0.6-0.8
				c0-2.2,4.1,0.4,4.5-6.2c0.8-10.5,1.5-17.3,1.5-24.1c0-15.1-5-11.5-5-13.7c0-0.6,0.5-0.7,1.1-0.7c1.2,0,2.3,0.3,3.5,0.3
				c1.2,0,2.3-0.3,3.4-0.3c0.9,0,1,1.1,1.3,1.8L195.1,43c0.7,1.3,1,1.9,1.4,1.9c0.3,0,1-1.3,2-3.5l15.3-30.7
				c0.4-0.7,0.9-2.2,1.6-2.2c0.6,0,2.7,0.3,3,0.3c1.5,0,2.1-0.3,3.1-0.3c0.4,0,0.6,0.4,0.6,0.8c0,2.1-5.1-0.7-4.9,6.9L219.3,48.2z"
				/>
			<path fill="#FFFFFF" d="M141.3,27.4c0,2.2-0.1,2.2,2.4,2.2h6.9c6.6,0,4.9-5.1,6.4-5.1c0.5,0,0.7,0.7,0.7,1.2
				c0,2.3-0.1,4.4-0.1,6.5c0,1.7,0.1,3.3,0.1,5.1c0,0.6-0.2,0.8-0.7,0.8c-2,0,0.2-5.6-5.2-5.6h-9.5c-1.3,0-1.2,1.1-1.2,2.1v11.8
				c0,3.8-0.5,5.3,4.9,5.3c14.8,0,16.9-6.6,17.8-6.6c0.4,0,0.5,0.6,0.5,0.8c0,2.3-1.7,4.6-3.2,6.2c-2.1,2.3-3.5,2.2-6.3,2.2
				c-4.9,0-9.7-0.4-14.6-0.3c-2.5,0.1-5.2,0.3-7.8,0.3c-0.6,0-1-0.1-1-0.7c0.1-0.8,0.8-0.7,2.8-1.7c1.7-0.8,1.8-2.6,1.8-5.6V17
				c0-2.9,0-6-3.5-6.5c-0.5-0.1-1.9-0.3-1.9-1c0-0.5,0.4-0.8,2.2-0.8c12.1,0,15.4,0.3,18.1,0.3c1.3,0,7.1-0.3,9.1-0.3
				c0.5,0,0.6,0.6,0.6,1.4c0,7.1-0.9,7.6-1.3,7.6c-1.5,0-0.5-3.1-1.5-4.6c-1.6-2.2-8.3-1.8-10.8-1.8c-6.1,0-6-0.3-6,4V27.4z"/>
		</g>
		<g>
			<g>
				<path fill="#FFFFFF" d="M48,91.6C6,72.2,11,28.7,11,8.3l74.5,0.1C85.5,28.7,90.2,72.2,48,91.6z M11,5L7.8,8.4
					c0,2.4-0.1,5.5-0.1,7c-0.3,23.9,1.3,61,40.2,79C68.4,84.8,84,68.5,88.1,43.1c2.4-14.7,1-28.7,1-38.1L11,5z"/>
			</g>
			<g>
				<path fill="#FFFFFF" d="M32.1,58.4c-3,3.2-5.9,6.3-6.9,7.4C25,66,25,66.3,25.1,66.4c0.2,0.2,0.5,0.5,0.6,0.5
					c0.2,0,0.3,0.1,0.6-0.2c0.1-0.1,3.4-3.3,7.3-7c0,0-0.4-0.2-0.7-0.5C32.5,58.9,32.1,58.4,32.1,58.4z"/>
				<g>
					<path fill="#FFFFFF" d="M34.1,57.5c0.8,0.7,2,1.4,2,1.4l-0.7,0.7c-0.3,0.3-1.2-0.2-2.1-1c-0.9-0.8-1.5-1.7-1.2-2l0.8-0.7
						C32.8,55.9,33.4,56.8,34.1,57.5z"/>
				</g>
				<g>
					<g>
						<g>
							<path fill="#FFFFFF" d="M68.2,65.7c0.6-0.6,0.6-1.2,0.6-1.2l0.7,0.3c0.2,0.2,0,1-0.6,1.6c-0.6,0.6-1.5,0.8-1.7,0.6l-0.4-0.7
								C66.9,66.4,67.5,66.4,68.2,65.7z"/>
						</g>
					</g>
					<g>
						<g>
							<path fill="#FFFFFF" d="M67.1,64.6c0.4-0.4,0.5-0.8,0.5-0.8l0.4,0.3c0.1,0.2,0,0.6-0.4,1.1c-0.5,0.5-1.1,0.6-1.2,0.4
								l-0.3-0.5C66.2,65.2,66.7,65,67.1,64.6z"/>
						</g>
					</g>
				</g>
			</g>
			<g>
				<path fill="#FFFFFF" d="M69.2,30.6l-0.8,0.7c-1.1,0.4-3.5-1.5-5.5-3.2c-1.3-1.1-3.9-4-3.2-5.2l0.3-0.3c-0.2-0.1-0.4-0.3-0.6-0.3
					c-0.2-0.1-0.5-0.2-0.8-0.2c-0.3,0-0.6,0.2-0.6,0.4c-0.1,0.5,0.2,1.2,0.7,2c0.4,0.8,2,3.2,5.3,5.8c1.5,1.2,3.2,1.9,4.4,2.4
					c0.2,0.1,1,0.2,1.3-0.1c0.3-0.3,0-0.9-0.3-1.5C69.4,31,69.3,30.8,69.2,30.6z"/>
			</g>
			<path fill="#FFFFFF" d="M67.6,23.1"/>
			<path fill="#FFFFFF" d="M66,22.4"/>
			<path fill="#FFFFFF" d="M35.4,18.5c0,0.2,0,0.5,0,0.8c0,0.8,0.7,7.3,4.5,12C43.2,35.4,53,47.1,54.6,49c1.5,1.7,11.1,13,12.3,14.5
				c0,0.1,0.1,0.1,0.1,0.2c0,0-0.1,0.3-0.4,0.5c-0.3,0.2-0.6,0.3-0.6,0.3c0,0-0.3-0.3-0.3-0.3c-0.3-0.4-17-17.1-18.6-18.7
				c-1.6-1.6-10.2-9.9-13.7-12.1c-3.1-2-4.5-3.1-7.8-3.3c0,0-2.4-0.1-2.6-0.2c0,0,0-0.1,0.1-0.2c1.5-0.6,4.7-2.5,7.3-4.9
				c3.6-3.4,4.7-5.8,4.9-6.2C35.2,18.4,35.4,18.4,35.4,18.5z M37.8,32.6c-3.5-3.4-4.8-4.2-6.3-4.9c-0.8-0.4-1.6-0.6-1.9-0.5
				c-0.7,0.3-1.7,0.7-2.3,1.3c-0.5,0.4-0.4,0.6-0.2,0.7c0.2,0.1,2,0.5,3.6,1.4c2.8,1.5,8.1,5.2,19.6,17c5.8,6,15,15.4,15,15.4
				l0.2-0.2c0,0-13.4-15-23.8-26.1C40.2,35.1,38.9,33.8,37.8,32.6z"/>
			<path fill="#FFFFFF" d="M68.9,30.5"/>
			<path fill="#FFFFFF" d="M27.5,25.5c-1.5,1.3-3.4,2.5-5.1,3.1c-1.1,0.4-2.6-0.1-1.5-2.1c0.3-0.6,0.8-1.4,1.4-2.2
				c2-2.7,5.6-5.9,9.1-7.8c1.1-0.6,2-0.9,2.5-0.9c0.9,0.1,0.9,0.8,0.8,1.5C34.3,18.5,31.8,21.9,27.5,25.5z M28.6,23.5
				c0.4-0.3,1.8-1.7,2.9-3.1c1.2-1.5,1.9-2.7,1.9-2.7s0.2-0.4,0.2-0.7c0-0.2-0.3-0.3-0.3-0.4c-0.1-0.1-3.1,1.2-4.5,2.5
				c-0.2,0.1-0.4,0.8-0.6,1.2c-0.1,0.4,0.9,1.4,0.2,3.1C28.3,23.6,28.5,23.6,28.6,23.5z"/>
			<path fill="#FFFFFF" d="M35.4,18.9"/>
			<g>
				<path fill="#FFFFFF" d="M46.8,46.4c-0.7,0.7-11.5,11.1-11.5,11.1c0.2,0.2,0.6,0.5,0.6,0.5s9.9-9.6,10.7-10.3
					c0.2-0.2,0.6-0.6,0.8-0.7L46.8,46.4z"/>
				<path fill="#FFFFFF" d="M67.2,33.6c0.2,0,0.3,0,0.5,0c0.2,0,0.4,0,0.4-0.1c0.1-0.1,0.2-0.2,0-0.2c-0.5,0-1.4-0.3-2.5-0.8
					c-0.6,0.2-1.7,0.5-2.9,1c-1.6,0.7-5,2.7-12,9.2l0.5,0.6c2.4-2.2,5.7-5.1,7.4-6.2c3.1-2,5.4-3,6.9-3.3
					C66,33.7,66.7,33.6,67.2,33.6z"/>
			</g>
			<g>
				<path fill="#FFFFFF" d="M60.4,28.5c-1.9-2-2.5-3.4-2.8-4.5c0,0,0-0.1,0-0.1c0,0-0.1,0-0.1,0c0,0,0,0.1,0,0.1
					c-0.2,2.1,0,2.9-0.9,5c-0.7,1.8-2,4-3.8,6.1c-1,1.2-2.7,3.1-4.3,5l1.1,1.3c0.1-0.1,0.5-0.5,0.9-0.9c5.3-5.7,10-9.3,11.7-10.5
					C61.5,29.6,60.9,29,60.4,28.5z"/>
				<path fill="#FFFFFF" d="M44.6,44.4c-2.3,2.5-4.5,5.1-5.2,5.8c-0.6,0.6-5.5,5.9-5.5,5.9s0.1,0.2,0.3,0.4c0.2,0.2,0.4,0.4,0.4,0.4
					s10.3-10.6,11.1-11.4L44.6,44.4z"/>
			</g>
			<path fill="#FFFFFF" d="M62.3,21.5c0-0.1,0-0.2,0-0.2c-0.5-0.1-1-0.1-1.2,0.1c-0.7,0.7,0.8,3.2,3.4,5.6c2.5,2.3,5.1,3.7,5.8,2.9
				c0.3-0.3,0.2-0.9-0.2-1.6C66.4,28.7,62.3,23.8,62.3,21.5z"/>
			<path fill="#FFFFFF" d="M73.7,22.4c-0.4,0.4-1,1.4-1.3,1.7c0.4-0.3,0.6-1.2,0.2-3.4c-0.3-1.6-0.5-2.1-0.7-2.6
				c-0.1-0.3-0.3-0.2-0.5,0c-0.2,0.2-0.7,1-0.7,1.1c0,0.2,0,0-0.7-2.2c-0.5-1.4-0.7-2.4-0.6-2.9c0-0.3,0-0.5,0-0.7
				c0-0.2-0.1-0.2-0.5,0c-0.2,0.1-2.2,1.5-3,3.5c-0.5,1.2-0.5,2.1-0.6,1.6c-0.1-1.2-0.1-1.1-0.2-1.1c-0.6,0.2-2.9,1.2-2.9,4.3
				c0,2.6,4.8,8,8.8,6.8c0,0,3-0.6,3-3.3C74,22.3,73.7,22.4,73.7,22.4z M72.7,25.8c-0.1,0.3-0.7,1-1.5,1.3c-0.9,0.4-2.2,0.5-2.8,0.3
				c-2.9-0.9-4.7-3.9-4.7-3.9c-2.3-3.7,0.8-5.3,1-5.3c0,0-0.3,1.2-0.1,2c0.2,0.7,0.6,1.3,0.8,1.7c0.3,0.8-0.1,1.4-0.3,1.6
				c-0.1,0.1,0.2,0.1,0.2,0c0,0,0.1-0.1,0.2-0.1c0.4-0.3,0.8-0.8,0.7-1.3C65.9,21,65,20.3,66,17.9c0.6-1.4,2-2.9,2.1-2.9
				c0.2-0.1,0.4-0.3,0.4-0.2c0,0.2,0.3,1.2,0.4,1.9c0.1,0.7,0.9,2.1,0.8,4c-0.2,1.9-3.3,4.1-3.8,4.2c-0.1,0-0.4,0.2-0.4,0.2
				c-0.1,0.1,0.1,0.1,0.1,0.1c0.2,0,1.5-0.3,2.6-1c0.9-0.6,1.8-1.6,2.1-2.2c0.6-1,0.8-2.5,0.9-2.6c0.1-0.2,0.2-0.2,0.2-0.1
				c0,0.1,0.3,1,0.3,1.4c0,0.2,0.2,0.9,0.2,1.7c0,1.5-0.4,2.1-1.3,2.8c-0.5,0.4-1,0.5-1.6,0.6l-0.2,0c-0.1,0-0.2,0,0,0.1
				c0,0,0.1,0,0.2,0.1c0.5,0.2,1.5,0.2,2.2-0.2c0.3-0.2,0.7-0.5,1.2-1c0.2-0.2,0.5-0.6,0.5-0.4C72.9,24.6,73,25.2,72.7,25.8z"/>
		</g>
	</g>
</g>
</svg>
